<svg width="160" height="36" viewBox="0 0 160 36" fill="none" xmlns="http://www.w3.org/2000/svg">
  <rect width="160" height="36" rx="4" fill="#0A0A0A"/>
  <path d="M20 10H26.5C31.1944 10 35 13.8056 35 18.5C35 23.1944 31.1944 27 26.5 27H20V10ZM24 14V23H26.3C28.7853 23 30.8 20.9853 30.8 18.5C30.8 16.0147 28.7853 14 26.3 14H24Z" fill="#FAFAFA"/>
  <path d="M44 27V10H48V23.2H56V27H44Z" fill="#FAFAFA"/>
  <path d="M62 27V10H66V27H62Z" fill="#FAFAFA"/>
  <path d="M74 27L68.8 10H73.1L76.9 23.6L80.8 10H85L79.8 27H74Z" fill="#FAFAFA"/>
  <path d="M91 27V10H103V13.7H95V16.7H102.1V20.4H95V23.3H103V27H91Z" fill="#FAFAFA"/>
  <path d="M115 27V10H121.7C126.2 10 128.8 12.3 128.8 16.1C128.8 18.7 127.3 20.6 124.9 21.4L129.3 27H124.4L120.4 22H119V27H115ZM119 18.6H121.3C123.2 18.6 124.6 17.8 124.6 16.2C124.6 14.5 123.2 13.7 121.3 13.7H119V18.6Z" fill="#FAFAFA"/>
  <path d="M135 27V10H139V27H135Z" fill="#FAFAFA"/>
</svg>
